<svg id="svg" version="1.1" xmlns="http://www.w3.org/2000/svg" xmlns:xlink="http://www.w3.org/1999/xlink" width="400" height="400" viewBox="0, 0, 400,400"><g id="svgg"><path id="path0" d="M118.270 84.263 C 118.121 84.412,118.000 137.425,118.000 202.070 L 118.000 319.606 141.500 319.503 L 165.000 319.400 165.102 271.900 L 165.203 224.400 180.718 224.400 L 196.232 224.400 198.773 229.300 C 200.171 231.995,201.803 235.100,202.402 236.200 C 203.000 237.300,204.616 240.360,205.992 243.000 C 207.369 245.640,208.990 248.700,209.594 249.800 C 210.198 250.900,212.092 254.500,213.804 257.800 C 215.516 261.100,217.407 264.700,218.006 265.800 C 218.605 266.900,220.402 270.320,222.000 273.400 C 223.597 276.480,225.397 279.900,226.000 281.000 C 226.603 282.100,228.179 285.070,229.502 287.600 C 230.826 290.130,232.671 293.640,233.601 295.400 C 234.532 297.160,236.616 301.120,238.232 304.200 C 239.847 307.280,242.308 311.960,243.699 314.600 L 246.229 319.400 271.015 319.504 C 296.217 319.609,297.197 319.578,296.498 318.695 C 296.282 318.423,295.244 316.580,294.191 314.600 C 293.138 312.620,291.156 308.930,289.787 306.400 C 288.418 303.870,286.533 300.360,285.599 298.600 C 284.664 296.840,283.267 294.230,282.495 292.800 C 279.970 288.126,278.530 285.451,276.791 282.200 C 275.850 280.440,274.050 277.110,272.791 274.800 C 271.533 272.490,269.648 268.980,268.604 267.000 C 267.559 265.020,266.207 262.500,265.599 261.400 C 264.991 260.300,263.871 258.230,263.110 256.800 C 262.349 255.370,259.789 250.600,257.420 246.200 C 255.051 241.800,252.412 236.895,251.556 235.300 C 248.402 229.422,246.647 226.170,245.999 225.000 C 243.786 221.003,234.550 203.700,234.305 203.090 C 234.021 202.383,235.692 198.925,244.598 181.800 C 245.971 179.160,248.850 173.580,250.995 169.400 C 253.141 165.220,256.115 159.460,257.603 156.600 C 259.092 153.740,261.836 148.430,263.702 144.800 C 265.567 141.170,268.443 135.590,270.093 132.400 C 276.730 119.569,279.870 113.480,283.296 106.800 C 285.270 102.950,288.576 96.538,290.642 92.552 C 292.709 88.565,294.400 85.010,294.400 84.652 C 294.400 83.785,245.196 83.635,244.490 84.500 C 244.067 85.017,230.563 112.026,208.790 155.900 L 196.235 181.200 180.719 181.200 L 165.203 181.200 165.102 132.700 L 165.000 84.200 141.770 84.097 C 128.993 84.040,118.418 84.115,118.270 84.263 " stroke="none" fill="#fbfbfb" fill-rule="evenodd"></path><path id="path1" d="M0.000 200.000 L 0.000 400.000 200.000 400.000 L 400.000 400.000 400.000 200.000 L 400.000 0.000 200.000 0.000 L 0.000 0.000 0.000 200.000 M165.102 132.700 L 165.203 181.200 180.719 181.200 L 196.235 181.200 208.790 155.900 C 230.563 112.026,244.067 85.017,244.490 84.500 C 245.196 83.635,294.400 83.785,294.400 84.652 C 294.400 85.010,292.709 88.565,290.642 92.552 C 288.576 96.538,285.270 102.950,283.296 106.800 C 279.870 113.480,276.730 119.569,270.093 132.400 C 268.443 135.590,265.567 141.170,263.702 144.800 C 261.836 148.430,259.092 153.740,257.603 156.600 C 256.115 159.460,253.141 165.220,250.995 169.400 C 248.850 173.580,245.971 179.160,244.598 181.800 C 235.692 198.925,234.021 202.383,234.305 203.090 C 234.550 203.700,243.786 221.003,245.999 225.000 C 246.647 226.170,248.402 229.422,251.556 235.300 C 252.412 236.895,255.051 241.800,257.420 246.200 C 259.789 250.600,262.349 255.370,263.110 256.800 C 263.871 258.230,264.991 260.300,265.599 261.400 C 266.207 262.500,267.559 265.020,268.604 267.000 C 269.648 268.980,271.533 272.490,272.791 274.800 C 274.050 277.110,275.850 280.440,276.791 282.200 C 278.530 285.451,279.970 288.126,282.495 292.800 C 283.267 294.230,284.664 296.840,285.599 298.600 C 286.533 300.360,288.418 303.870,289.787 306.400 C 291.156 308.930,293.138 312.620,294.191 314.600 C 295.244 316.580,296.282 318.423,296.498 318.695 C 297.197 319.578,296.217 319.609,271.015 319.504 L 246.229 319.400 243.699 314.600 C 242.308 311.960,239.847 307.280,238.232 304.200 C 236.616 301.120,234.532 297.160,233.601 295.400 C 232.671 293.640,230.826 290.130,229.502 287.600 C 228.179 285.070,226.603 282.100,226.000 281.000 C 225.397 279.900,223.597 276.480,222.000 273.400 C 220.402 270.320,218.605 266.900,218.006 265.800 C 217.407 264.700,215.516 261.100,213.804 257.800 C 212.092 254.500,210.198 250.900,209.594 249.800 C 208.990 248.700,207.369 245.640,205.992 243.000 C 204.616 240.360,203.000 237.300,202.402 236.200 C 201.803 235.100,200.171 231.995,198.773 229.300 L 196.232 224.400 180.718 224.400 L 165.203 224.400 165.102 271.900 L 165.000 319.400 141.500 319.503 L 118.000 319.606 118.000 202.070 C 118.000 137.425,118.121 84.412,118.270 84.263 C 118.418 84.115,128.993 84.040,141.770 84.097 L 165.000 84.200 165.102 132.700 " stroke="none" fill="#145404" fill-rule="evenodd"></path></g></svg>